<?xml version="1.0" standalone="no"?>
<!DOCTYPE svg PUBLIC "-//W3C//DTD SVG 20010904//EN"
 "http://www.w3.org/TR/2001/REC-SVG-20010904/DTD/svg10.dtd">
<svg version="1.0" xmlns="http://www.w3.org/2000/svg"
 width="1223.000000pt" height="1223.000000pt" viewBox="0 0 1223.000000 1223.000000"
 preserveAspectRatio="xMidYMid meet">
<metadata>
Created by potrace 1.11, written by Peter Selinger 2001-2013
</metadata>
<g transform="translate(0.000000,1223.000000) scale(0.100000,-0.100000)"
fill="#000000" stroke="none">
<path d="M5642 12215 c-146 -13 -200 -20 -492 -66 -672 -106 -1365 -360 -1985
-727 -1382 -819 -2400 -2195 -2790 -3772 -36 -142 -80 -354 -96 -455 -5 -33
-14 -87 -20 -120 -5 -33 -14 -96 -19 -140 -6 -44 -17 -129 -25 -190 -27 -209
-39 -609 -27 -884 7 -138 16 -281 22 -318 5 -38 14 -108 20 -158 16 -134 30
-234 40 -290 112 -645 275 -1161 539 -1705 242 -501 530 -934 913 -1377 115
-133 397 -415 539 -539 329 -287 636 -505 1019 -723 84 -48 458 -234 520 -259
30 -12 69 -27 85 -33 17 -7 32 -13 35 -14 3 0 25 -10 50 -22 25 -11 83 -33
130 -48 47 -15 90 -31 95 -35 6 -4 37 -16 70 -25 33 -10 101 -30 150 -45 211
-64 315 -92 415 -111 30 -6 73 -15 95 -19 22 -4 67 -13 100 -20 33 -7 80 -16
105 -21 57 -12 161 -27 266 -37 44 -5 85 -12 92 -16 6 -4 64 -9 127 -11 64 -2
133 -10 153 -16 75 -26 661 -14 810 17 22 4 32 3 32 -6 0 -9 4 -9 13 -2 6 5
41 12 77 16 91 8 215 24 280 35 98 17 194 32 245 40 110 17 510 119 629 160
33 12 66 21 75 21 9 0 27 6 41 13 14 7 68 28 120 46 52 18 99 37 105 42 5 5
15 9 22 9 8 0 33 9 55 20 23 11 47 20 52 20 6 0 38 14 71 30 33 17 64 30 69
30 14 0 414 199 461 230 22 14 54 32 70 40 17 8 49 27 72 42 23 15 44 28 48
28 3 0 38 21 78 48 40 26 84 54 99 61 15 8 57 38 95 67 37 30 77 58 88 63 11
5 33 21 48 35 15 14 31 26 35 26 4 0 21 14 39 30 18 17 36 30 41 30 4 0 21 13
37 30 16 16 34 30 40 30 6 0 33 23 60 50 27 28 54 50 60 50 6 0 37 27 70 60
33 33 64 60 70 60 16 0 495 484 495 501 0 12 -145 -123 -207 -194 -14 -15 -29
-24 -35 -21 -5 3 -2 14 8 25 9 10 21 16 25 13 5 -3 9 1 9 8 0 7 45 60 100 117
55 58 100 108 100 113 0 5 30 40 68 79 37 39 69 76 72 84 3 7 22 31 43 54 20
22 37 44 37 48 0 4 18 26 40 48 21 22 39 45 40 50 0 6 14 24 30 42 17 18 30
36 30 41 0 5 14 23 30 40 17 18 30 38 30 45 0 7 9 19 20 27 11 8 20 22 20 32
0 10 4 18 8 18 5 0 15 12 23 28 8 15 22 34 31 43 10 9 18 24 18 33 0 9 9 21
20 28 11 7 20 20 20 29 0 9 7 23 16 30 9 7 20 22 25 34 14 29 33 61 48 79 7 9
10 16 5 16 -5 0 -2 6 7 13 9 7 24 30 34 52 10 22 30 58 44 80 38 59 51 86 51
101 0 8 5 14 10 14 6 0 10 9 10 20 0 11 5 20 10 20 6 0 10 9 10 19 0 11 3 21
8 23 10 4 72 128 72 144 0 7 3 14 8 16 10 4 52 87 52 104 0 8 5 14 10 14 6 0
10 9 10 20 0 11 5 20 10 20 6 0 10 9 10 20 0 11 9 35 20 55 11 20 20 42 20 50
0 8 5 15 10 15 6 0 10 14 10 30 0 17 5 30 10 30 6 0 10 9 10 20 0 11 5 20 10
20 6 0 10 14 10 30 0 17 5 30 10 30 6 0 10 9 10 20 0 11 5 20 10 20 6 0 10 14
10 30 0 17 5 30 10 30 6 0 10 14 10 30 0 17 5 30 10 30 6 0 10 9 10 20 0 11 5
20 10 20 6 0 10 14 10 30 0 17 5 30 10 30 6 0 10 14 10 30 0 17 5 30 10 30 6
0 10 14 10 30 0 17 5 30 10 30 6 0 10 14 10 30 0 17 5 30 10 30 6 0 10 23 10
50 0 28 3 50 8 50 12 0 32 53 32 87 0 18 5 33 10 33 6 0 10 18 10 40 0 22 5
40 10 40 6 0 10 18 10 40 0 22 5 40 10 40 6 0 10 27 10 60 0 33 4 60 10 60 6
0 10 11 10 24 0 14 5 28 10 31 6 3 10 26 10 50 0 24 5 47 10 50 6 3 10 39 10
80 0 41 5 77 10 80 6 3 10 21 10 40 0 19 5 37 10 40 6 3 10 52 10 110 0 58 4
107 10 110 6 3 10 26 10 50 0 30 5 47 16 53 13 7 18 34 25 128 18 270 3 959
-21 989 -13 16 -60 306 -60 370 0 47 -28 215 -40 240 -6 11 -15 53 -20 94 -6
41 -14 79 -19 85 -5 6 -12 31 -15 56 -12 79 -39 190 -47 190 -4 0 -10 24 -14
53 -4 28 -13 65 -21 81 -7 15 -18 53 -24 85 -11 60 -32 126 -43 137 -4 4 -7
16 -7 26 0 10 -4 18 -10 18 -5 0 -10 8 -10 18 0 18 -23 88 -45 137 -7 17 -23
59 -36 95 -12 35 -30 79 -40 98 -11 18 -19 37 -19 43 0 6 -13 38 -29 72 -27
56 -39 89 -42 109 0 4 -32 69 -70 144 -38 76 -69 144 -69 151 0 7 -4 13 -10
13 -5 0 -10 9 -10 20 0 11 -4 20 -10 20 -5 0 -10 9 -10 20 0 11 -4 20 -9 20
-11 0 -51 66 -51 86 0 8 -4 14 -10 14 -5 0 -10 9 -10 19 0 11 -4 21 -8 23 -14
6 -52 66 -52 82 0 9 -3 16 -8 16 -8 0 -92 132 -92 144 0 6 -34 56 -163 244
-51 74 -116 158 -206 270 -42 52 -91 112 -109 135 -110 138 -385 422 -563 581
-534 478 -1113 839 -1759 1098 -147 59 -463 165 -605 204 -301 81 -763 168
-870 164 -22 -1 -83 6 -135 15 -128 23 -781 30 -1008 10z m713 -1945 c1027
-64 1961 -478 2688 -1189 722 -707 1157 -1643 1238 -2666 15 -188 6 -600 -16
-785 -95 -788 -398 -1512 -891 -2130 -138 -173 -461 -496 -632 -632 -511 -407
-1086 -684 -1717 -827 -710 -160 -1485 -123 -2187 105 -1453 472 -2528 1693
-2812 3194 -100 528 -97 1051 9 1585 328 1648 1622 2941 3270 3270 365 73 701
97 1050 75z m-6118 -4792 c-3 -7 -5 -2 -5 12 0 14 2 19 5 13 2 -7 2 -19 0 -25z"/>
<path d="M5785 9739 c-344 -30 -769 -137 -1090 -274 -440 -188 -811 -439
-1151 -779 -298 -298 -502 -582 -689 -961 -183 -371 -294 -737 -350 -1155 -23
-169 -31 -570 -16 -753 74 -869 441 -1659 1055 -2272 592 -591 1323 -943 2171
-1047 169 -20 665 -17 835 5 593 79 1121 277 1594 597 899 609 1464 1554 1588
2655 26 239 14 655 -28 925 -258 1651 -1616 2917 -3279 3060 -141 12 -497 11
-640 -1z m1290 -1884 c158 -25 444 -117 592 -190 264 -131 370 -217 524 -425
173 -233 209 -288 293 -455 66 -133 93 -201 125 -314 23 -79 41 -158 41 -175
0 -17 4 -46 9 -63 32 -112 17 -447 -29 -641 -56 -236 -279 -538 -509 -689
-151 -100 -394 -201 -576 -239 -98 -21 -136 -24 -355 -24 -235 0 -383 9 -480
29 -25 5 -83 17 -130 27 -144 29 -404 166 -486 256 -169 184 -234 385 -234
729 l0 179 -42 1 c-24 0 -61 2 -83 4 -22 2 -96 6 -165 9 -187 8 -421 41 -540
76 -58 17 -156 56 -219 86 -62 30 -115 54 -116 54 -9 0 -270 -385 -332 -490
-28 -47 -79 -132 -113 -190 -35 -58 -83 -141 -108 -185 -63 -112 -151 -243
-191 -283 -42 -42 -104 -72 -151 -72 -83 0 -202 92 -216 167 -4 19 -4 53 -1
76 6 45 118 275 230 469 38 68 89 157 112 198 23 41 60 104 83 140 22 36 52
84 67 107 14 23 52 78 83 122 31 44 99 141 150 214 106 153 259 331 509 590
399 415 511 503 893 691 292 144 464 192 783 216 280 21 421 20 582 -5z"/>
<path d="M7085 7421 c-97 -18 -171 -83 -218 -193 -48 -111 -209 -690 -196
-703 9 -8 377 25 489 44 247 42 469 130 560 220 117 117 101 277 -41 421 -76
77 -131 113 -257 168 -100 43 -114 46 -202 48 -52 2 -113 -1 -135 -5z"/>
<path d="M6110 7337 c-113 -40 -354 -173 -480 -266 -124 -90 -500 -441 -500
-466 0 -23 173 -75 311 -94 41 -5 164 -13 275 -17 l200 -7 32 104 c86 278 104
330 211 613 42 110 50 141 39 147 -17 11 -13 12 -88 -14z"/>
<path d="M8091 6290 c-96 -90 -279 -179 -521 -253 -319 -98 -614 -153 -864
-162 -75 -3 -112 -8 -118 -17 -14 -20 -1 -333 17 -413 22 -97 46 -142 113
-211 66 -69 145 -112 276 -149 150 -43 416 -33 581 21 84 28 242 102 310 146
119 77 245 283 300 488 24 87 28 126 29 230 0 151 -31 381 -53 380 -3 -1 -35
-28 -70 -60z"/>
<path d="M10875 2510 c-3 -5 -1 -10 4 -10 6 0 11 5 11 10 0 6 -2 10 -4 10 -3
0 -8 -4 -11 -10z"/>
<path d="M10800 2408 l-23 -33 28 28 c15 16 25 31 22 33 -3 3 -15 -10 -27 -28z"/>
<path d="M10744 2337 c-48 -55 -54 -68 -14 -30 24 23 42 45 39 48 -3 3 -14 -5
-25 -18z"/>
<path d="M10654 2228 c-44 -49 -51 -63 -25 -49 11 6 26 21 32 34 7 12 17 25
23 29 6 4 8 9 5 12 -3 4 -19 -9 -35 -26z"/>
<path d="M10535 2090 c-38 -38 -65 -73 -61 -77 8 -8 136 121 136 138 0 14 -1
13 -75 -61z"/>
</g>
</svg>
